<svg width="167" height="88" viewBox="0 0 167 88" fill="none" xmlns="http://www.w3.org/2000/svg">
<path d="M0.0337005 69.0244C5.19538 50.3028 25.4226 30.6122 68.6611 19.0492C116.201 6.33539 155.511 31.9661 167 57.2541C167 57.2541 162.639 72.8111 142.052 72.4092C121.465 72.0072 26.6812 71.3472 26.6812 71.3472C26.6812 71.3472 12.9082 80.9556 8.59836 78.2943C4.79279 75.9504 -0.470601 70.8607 0.0337005 69.0244Z" fill="#FA3B00"/>
<path d="M26.6777 71.3474C27.004 85.9736 59.2582 87.5559 80.8669 87.1413C92.2412 86.9213 137.616 90.2595 143.099 72.4136C100.658 59.7336 61.3898 57.817 26.6777 71.3516V71.3474Z" fill="white"/>
<path d="M76 78.16L76 72.56L104 72.56L104 78.76L85.72 82.64L85.72 82.96L104 81.72L104 87.32L76 87.32L76 81.16L94.4 77.16L94.4 76.84L76 78.16ZM76 70.7872L76 65.1872L104 65.1872L104 70.7872L76 70.7872ZM82.48 57.8741L97.48 57.8741C98.84 57.8741 99.52 57.1941 99.52 56.3941C99.52 55.4741 98.68 54.5941 96.88 54.5941L92.36 54.5941L92.36 56.3941L88.72 56.3941L88.72 48.9941L103.96 48.9941L103.96 52.8741L101.2 52.8741L101.2 53.2341C103.28 53.8741 104.4 55.7941 104.4 57.7941C104.4 60.5141 102.2 63.4741 97.04 63.4741L82.88 63.4741C77.92 63.4741 75.56 60.6741 75.56 56.3141C75.56 51.9141 78.04 48.9941 82.88 48.9941L87.36 48.9941L87.36 54.5941L82.48 54.5941C80.92 54.5941 80.44 55.3941 80.44 56.2341C80.44 57.0741 80.92 57.8741 82.48 57.8741ZM76 47.2919L76 41.6919L104 41.6919L104 47.2919L76 47.2919ZM76 39.9388L76 33.0188C76 28.3788 78.52 25.6988 83.48 25.6988L83.68 25.6988C88.16 25.6987 90.48 27.8588 90.68 29.8188L91.08 29.8188C91.28 27.8588 93.84 25.6987 97.92 25.6987L98.32 25.6987C100.72 25.6987 102.44 25.6587 104 25.2987L104 30.8987C102.32 31.2587 100.44 31.2988 98.28 31.2988L95.4 31.2988C93.96 31.2988 93.32 31.8588 93.32 33.0588L93.32 34.3388L104.04 34.3388L104.04 39.9388L76 39.9388ZM80.88 34.3388L88.44 34.3388L88.44 33.0588C88.44 31.8588 87.76 31.2988 86.28 31.2988L83 31.2988C81.56 31.2988 80.88 31.8588 80.88 33.0588L80.88 34.3388ZM76 23.9137L76 18.3137L104 18.3137L104 23.9137L76 23.9137Z" fill="black"/>
</svg>
